<svg width="277" height="47" viewBox="0 0 277 47" fill="none" xmlns="http://www.w3.org/2000/svg">
<path d="M0.768555 46.6242V45.8297L13.1002 7.50821H22.9504L27.086 14.2378M57.0128 13.9574L60.5468 7.50821H70.3219L83.1047 45.3624V46.8578" stroke="#F9AB00" stroke-width="1.53708"/>
<path d="M72.7656 46.6712V30.2677H66.1111V46.6712" stroke="#F9AB00" stroke-width="1.53708"/>
<path d="M64.0808 28.8181L64.0808 46.5769" stroke="#F9AB00" stroke-width="1.53708"/>
<path d="M67.8403 16.9946V28.491H63.6671L63.2536 27.977V27.4629L63.4792 26.8554L63.5543 26.6217V26.3413L63.5167 26.0609L63.3288 25.6403L63.0656 25.5468L62.8776 25.5001H62.7272L62.8024 25.2197L62.8776 24.7524V24.4252L62.7272 24.0513L62.3889 23.7242L61.9377 23.3971H61.5241H61.073V22.9765L60.9602 22.6961L60.7722 22.4157L60.3962 22.0885L59.9075 21.9951H59.118L59.0804 21.6679L58.9676 21.2473L58.5916 20.9202L54.0049 18.6303L49.3805 21.2473L49.2301 21.4343V22.0885H48.2902H47.8391L47.5383 22.3222L47.2751 22.6493L47.0871 23.0232V23.3503V23.4905H46.5984L46.4104 23.584L46.1472 23.7242L45.8464 24.0513L45.6209 24.3317L45.3201 24.8458L45.2825 25.2664V25.5001V25.6403H44.9441L44.7186 25.7805L44.5682 26.0609L44.493 26.575L44.5682 26.9488L44.7186 27.4629V27.79L44.5682 28.3041L44.3802 28.5378H39.8686L39.7558 28.3041V27.977V27.6031L39.8686 27.3227L40.019 26.9488L40.0942 26.6684V26.3413L40.019 25.7805L39.7558 25.6403L39.3423 25.5001H39.1919L39.2671 25.173V24.8926L39.1919 24.5187L39.0415 24.1915L38.8911 23.9111L38.5903 23.6775L38.2896 23.5373L37.9136 23.4905L37.5376 23.3971L37.4249 23.1167L37.2369 22.6493L36.8985 22.182L36.5225 21.9483H35.4698L35.3946 21.6212L35.2067 21.2473L34.8683 20.9202L34.3044 20.4529L30.6199 18.3966L25.9204 20.8267L25.77 21.0137L25.6572 21.2006L25.5444 21.6679L25.5068 21.9016H25.0932H24.3789L24.1157 22.0418L23.8902 22.3222L23.6646 22.6026L23.5518 22.9297V23.2101V23.3971H23.1006L22.7247 23.4905L22.4239 23.6307L22.0855 23.9111L21.9351 24.2383L21.7848 24.5654L21.7096 24.8926V25.2197V25.4534H21.4088L21.108 25.5468L20.9576 25.7338L20.8448 25.9207V26.2478L21.0328 26.6684L21.108 27.1358V28.1172H17.198L17.0476 16.6674" stroke="#F9AB00" stroke-width="1.53708"/>
<path d="M12.7993 16.6206L70.8857 16.901" stroke="#F9AB00" stroke-width="1.53708"/>
<path d="M30.4697 16.6675V13.0223H54.193V16.761" stroke="#F9AB00" stroke-width="1.53708"/>
<path d="M40.771 28.5375V46.6701" stroke="#F9AB00" stroke-width="1.53708"/>
<path d="M43.5532 28.5375V46.6701" stroke="#F9AB00" stroke-width="1.53708"/>
<path d="M20.281 28.2575V46.6238" stroke="#F9AB00" stroke-width="1.53708"/>
<path d="M17.3108 46.6247V30.3147H10.1675V46.6247" stroke="#F9AB00" stroke-width="1.53708"/>
<path d="M10.1675 34.847H10.9194L10.9946 34.3797L11.145 34.0058L11.3706 33.7254L11.7465 33.2581L12.0097 32.931L12.4233 32.6506L12.7616 32.4169L13.2128 32.1832L13.5512 32.043L13.9647 31.7159L14.4159 32.043L14.8294 32.1832L15.1678 32.4169L15.5062 32.6506L15.9197 32.931L16.2205 33.2581L16.4837 33.7254L16.7844 34.0058L17.01 34.3797L17.1228 34.847H17.3108" stroke="#F9AB00" stroke-width="1.53708"/>
<path d="M72.728 34.7065H72.1641L71.9385 34.1924L71.6753 33.7718L71.3746 33.3045L70.961 32.8371L70.5851 32.6035L70.2467 32.4165L69.9083 32.1829L69.57 31.9959L69.1188 31.6221L68.7428 31.9025L68.3669 32.1829L67.9533 32.4165L67.6149 32.6035L67.2766 32.8371L66.9758 33.1175L66.7502 33.4914L66.487 33.912L66.3743 34.0055H66.1111" stroke="#F9AB00" stroke-width="1.53708"/>
<path d="M54.5761 13.881L54.2188 14.2174V15.6893H54.9731V14.2174L54.5761 13.881Z" stroke="#F9AB00" stroke-width="1.53708"/>
<path d="M55.8066 13.7473L55.2961 14.1274V15.6896H56.266V14.1274L55.8066 13.7473Z" stroke="#F9AB00" stroke-width="1.53708"/>
<path d="M56.8999 13.8166L56.5239 14.2372V15.6859H57.2383V14.2372L56.8999 13.8166Z" stroke="#F9AB00" stroke-width="1.53708"/>
<path d="M57.6142 14.3774V15.6859H58.5165V14.3774L58.1406 13.8166L57.6142 14.3774Z" stroke="#F9AB00" stroke-width="1.53708"/>
<path d="M58.855 14.3777V15.6395H59.7573V14.3777L59.3061 13.8636L58.855 14.3777Z" stroke="#F9AB00" stroke-width="1.53708"/>
<path d="M60.0957 14.3777V15.6395H60.9228V14.3777L60.5469 13.9104L60.0957 14.3777Z" stroke="#F9AB00" stroke-width="1.53708"/>
<path d="M61.261 14.3309V15.6395H62.0881V14.3309L61.7121 13.8636L61.261 14.3309Z" stroke="#F9AB00" stroke-width="1.53708"/>
<path d="M62.4265 14.331V15.6395H63.2912V14.331L62.8401 13.9104L62.4265 14.331Z" stroke="#F9AB00" stroke-width="1.53708"/>
<path d="M64.4568 15.733H63.6296V14.331L64.0432 13.9104L64.4568 14.4245V15.733Z" stroke="#F9AB00" stroke-width="1.53708"/>
<path d="M65.1711 13.9104L64.7952 14.331V15.733H65.5847V14.331L65.1711 13.9104Z" stroke="#F9AB00" stroke-width="1.53708"/>
<path d="M14.0024 14.1914V15.7336H13.1001V14.0045L13.5137 13.6774L14.0024 14.1914Z" stroke="#F9AB00" stroke-width="1.53708"/>
<path d="M14.3408 14.1671V15.7794H15.2453V14.1671L14.793 13.6297L14.3408 14.1671Z" stroke="#F9AB00" stroke-width="1.53708"/>
<path d="M15.6221 14.1671V15.7794H16.5266V14.1671L16.0743 13.6297L15.6221 14.1671Z" stroke="#F9AB00" stroke-width="1.53708"/>
<path d="M16.9788 14.1671V15.7794H17.8832V14.1671L17.4687 13.6297L16.9788 14.1671Z" stroke="#F9AB00" stroke-width="1.53708"/>
<path d="M18.2224 14.1671V15.7794H19.1269V14.1671L18.7123 13.6297L18.2224 14.1671Z" stroke="#F9AB00" stroke-width="1.53708"/>
<path d="M19.466 14.1671V15.7794H20.3705V14.1671L19.9559 13.6297L19.466 14.1671Z" stroke="#F9AB00" stroke-width="1.53708"/>
<path d="M20.7096 14.3137V15.8262H21.6518V14.3137L21.1995 13.6297L20.7096 14.3137Z" stroke="#F9AB00" stroke-width="1.53708"/>
<path d="M21.9909 14.3137V15.9196H22.8577V14.3137L22.4432 13.6297L21.9909 14.3137Z" stroke="#F9AB00" stroke-width="1.53708"/>
<path d="M23.2345 14.3137V15.9196H24.139V14.1671L23.6868 13.6297L23.2345 14.3137Z" stroke="#F9AB00" stroke-width="1.53708"/>
<path d="M24.4782 14.1671V15.9196H25.4203V14.1671L24.9681 13.6297L24.4782 14.1671Z" stroke="#F9AB00" stroke-width="1.53708"/>
<path d="M25.7971 14.3137V15.9196H26.6262V14.3137L26.2494 13.8251L25.7971 14.3137Z" stroke="#F9AB00" stroke-width="1.53708"/>
<path d="M27.0408 14.3137V15.9196H27.9829V14.3137L27.493 13.8251L27.0408 14.3137Z" stroke="#F9AB00" stroke-width="1.53708"/>
<path d="M28.3221 14.3137V15.9196H29.2265V14.3137L28.7366 13.8251L28.3221 14.3137Z" stroke="#F9AB00" stroke-width="1.53708"/>
<path d="M29.4526 14.3137V15.9196H30.4697V14.3137L29.8295 13.8251L29.4526 14.3137Z" stroke="#F9AB00" stroke-width="1.53708"/>
<path d="M66.3743 13.9573L65.9983 14.4246V15.7799H66.7126V14.4246L66.3743 13.9573Z" stroke="#F9AB00" stroke-width="1.53708"/>
<path d="M67.5395 13.9573L67.126 14.4246V15.8266H67.9907V14.4246L67.5395 13.9573Z" stroke="#F9AB00" stroke-width="1.53708"/>
<path d="M68.7805 13.8166L68.4045 14.2372V15.9663H69.1189V14.2372L68.7805 13.8166Z" stroke="#F9AB00" stroke-width="1.53708"/>
<path d="M64.7578 9.1188C65.1823 9.11885 65.7939 9.61452 65.7939 10.5934C65.7939 11.5723 65.1824 12.068 64.7578 12.068C64.3333 12.068 63.7217 11.5724 63.7217 10.5934C63.7217 9.61447 64.3333 9.1188 64.7578 9.1188Z" stroke="#F9AB00" stroke-width="1.53708"/>
<path d="M18.8521 9.1188C19.2427 9.1188 19.8511 9.59802 19.8511 10.5934C19.8511 11.5888 19.2427 12.068 18.8521 12.068C18.4614 12.0677 17.854 11.5885 17.854 10.5934C17.854 9.59839 18.4614 9.11916 18.8521 9.1188Z" stroke="#F9AB00" stroke-width="1.53708"/>
<path d="M70.5849 16.0133V13.8636L69.6826 14.1907V16.0133H70.5849Z" stroke="#F9AB00" stroke-width="1.53708"/>
<path d="M161.28 20.6736V17.3822H165.441V0.768555H165.945V2.17915H166.323V0.768555H166.828V2.17915H167.332V0.768555H167.836V2.17915H168.231V0.768555H168.77V8.60518H177.419V0.768555H178.05V2.17915H178.491V0.768555H178.995V2.17915H179.437V0.768555H180.067V2.17915H180.445V0.768555H180.95V17.3822H190.28V25.0621" stroke="#F9AB00" stroke-width="1.53708"/>
<path d="M188.767 25.0628H211.715V22.8686H213.607V11.4271V11.1136H213.257V10.6434H213.733V10.4867L213.607 10.33V10.1371V9.70303L213.801 9.20873L214.004 8.95554L214.111 8.76264L214.547 8.53357L214.819 8.76264L215.091 9.03994L215.246 9.37751L215.362 9.79949V10.3059L215.158 10.4867V10.6434H215.634V11.1136H215.246V11.4271V11.8973L273.625 12.5242V11.4271H273.276V10.8002H273.499V10.6434V10.33V9.85977L273.703 9.3087L273.918 8.91937L274.15 8.68911H274.511L274.76 8.91937L275.138 9.5463L275.264 10.0165V10.33V10.7487H275.427V11.4271H275.012V12.2108V29.6024" stroke="#F9AB00" stroke-width="1.53708"/>
<path d="M191.919 29.9217V29.1381H193.433V30.2352H199.107V29.1381H200.115H200.367V30.2352H205.915V29.4515H206.924V30.2352H212.346V29.4515H213.607V30.2352H221.046V29.4515H222.307V30.2352H229.872V29.4515H230.881V30.3919H238.825V29.4515H239.959V30.3919H247.525V29.4515H248.659V30.3919H256.225V29.6083H257.36V30.3919H265.303V29.6083H266.564V30.3919H274.382V29.765H275.264V30.3919H275.769V30.8621" stroke="#F9AB00" stroke-width="1.53708"/>
<path d="M137.449 28.6679V24.4361H155.101V22.5553H158.884L159.388 22.3986L160.145 21.9284L160.775 21.3015L162.919 18.7937L166.197 21.6149L167.206 22.3986L168.123 22.8045L169.349 23.0255H171.383L173.006 22.5553L174.645 21.3015L176.789 19.4207L178.554 21.3015L179.689 22.3986L181.202 22.5553L184.606 23.0255M184.606 23.0255H186.624V26.1602H184.606V23.0255ZM184.354 26.3169V33.0564" stroke="#F9AB00" stroke-width="1.53708"/>
<path d="M183.345 26.1598C183.345 26.536 183.345 30.914 183.345 33.0561" stroke="#F9AB00" stroke-width="1.53708"/>
<path d="M177.041 21.301V32.8992" stroke="#F9AB00" stroke-width="1.53708"/>
<path d="M175.528 32.8999V21.4584" stroke="#F9AB00" stroke-width="1.53708"/>
<path d="M164.054 21.301V32.8992" stroke="#F9AB00" stroke-width="1.53708"/>
<path d="M162.919 21.301V32.7424" stroke="#F9AB00" stroke-width="1.53708"/>
<path d="M156.615 25.6902V33.0566" stroke="#F9AB00" stroke-width="1.53708"/>
<path d="M83.1045 44.968V13.9349H132.531V12.9946V12.6811H132.279H132.153V12.0542H132.531V11.4272H132.279V11.1138L132.405 10.8003L132.784 10.3301L133.036 10.0166L133.54 10.3301L133.792 10.6436L133.918 10.8003L134.044 11.1138V11.4272H133.855V12.0542H134.229V12.6811H133.918V13.7782H135.936H136.188V14.4051H135.936V22.085H134.927V28.5111" stroke="#F9AB00" stroke-width="1.53708"/>
<path d="M94.957 20.8313L136.062 21.1448" stroke="#F9AB00" stroke-width="1.53708"/>
<path d="M95.3354 26.0024H95.8398M95.8398 26.0024H98.7399V21.7706H95.8398V26.0024ZM128.119 22.0841V26.3159H132.153V22.0841H128.119ZM126.606 22.0841V26.3159H121.184V22.0841H126.606ZM119.671 22.0841V26.0024H114.627V22.0841H119.671ZM112.988 21.7706V26.0024H107.692V21.7706H112.988ZM106.305 21.7706V26.0024H100.379V21.7706H106.305Z" stroke="#F9AB00" stroke-width="1.53708"/>
<path d="M155.606 25.6902V32.8999" stroke="#F9AB00" stroke-width="1.53708"/>
<path d="M154.471 33.3698L186.75 33.84" stroke="#F9AB00" stroke-width="1.53708"/>
<path d="M164.054 45.2813V34.9369H175.402V45.2813" stroke="#F9AB00" stroke-width="1.53708"/>
<path d="M154.597 33.5258V44.9673" stroke="#F9AB00" stroke-width="1.53708"/>
<path d="M185.237 33.8394V44.8107" stroke="#F9AB00" stroke-width="1.53708"/>
<path d="M189.65 45.5941V39.9517L191.92 29.9208H186.246V26.3159" stroke="#F9AB00" stroke-width="1.53708"/>
<path d="M149.553 44.4971V39.7951L152.706 30.2344V28.9805" stroke="#F9AB00" stroke-width="1.53708"/>
<path d="M153.589 29.6076H155.606" stroke="#F9AB00" stroke-width="1.53708"/>
<path d="M152.201 29.4511H146.527V28.5107H145.392V29.4511H139.971V28.5107H138.962V29.4511H133.162V28.5107H132.153V29.4511H126.605V28.5107H125.47V29.4511H120.049V28.5107H118.788V29.4511H113.24V28.5107H112.231V29.4511H107.061V28.5107H105.674V29.4511H100.505V28.5107H99.2439V28.9809H93.5699V28.0405H92.4351V28.9809H83.1045" stroke="#F9AB00" stroke-width="1.53708"/>
<path d="M275.769 30.3916V46.8486" stroke="#F9AB00" stroke-width="1.53708"/>
<path d="M92.9397 45.5931V36.5026H96.0919V45.5931M98.1093 45.5931V38.2267L98.4876 37.7565L99.2441 36.9728L99.6224 36.6593L100.127 36.5026H100.883H101.766L102.144 36.8161L102.649 37.1295L103.153 37.7565L103.531 38.2267V45.5931" stroke="#F9AB00" stroke-width="1.53708"/>
<path d="M105.296 45.4364V38.6969L105.8 37.5997L106.557 36.9728L107.314 36.5026H108.196L109.331 36.9728L110.214 37.5997L110.844 38.6969V45.4364" stroke="#F9AB00" stroke-width="1.53708"/>
<path d="M112.736 45.2796V38.6969V38.3834L112.988 37.9132L113.492 37.1295L114.249 36.6593L114.753 36.5026L115.888 36.6593L116.518 36.9728L117.023 37.5997L117.401 38.3834C117.485 38.6446 117.653 39.1984 117.653 39.3238C117.653 39.4492 117.653 43.3466 117.653 45.2796" stroke="#F9AB00" stroke-width="1.53708"/>
<path d="M119.292 45.1236V38.2274L119.797 37.6005L120.427 36.9735L121.184 36.5034L121.814 36.3466H122.697L123.453 36.6601L124.084 37.1303L124.714 38.2274V38.8543C124.714 39.0633 124.714 39.5126 124.714 39.638C124.714 39.7634 124.714 43.3473 124.714 45.1236" stroke="#F9AB00" stroke-width="1.53708"/>
<path d="M126.605 45.1233V37.2866H129.253V45.1233" stroke="#F9AB00" stroke-width="1.53708"/>
<path d="M133.792 44.6554V39.7967L134.045 39.3265L134.549 38.6995L134.927 38.3861L135.432 38.0726H135.81H136.314H136.819L137.197 38.2293L137.575 38.5428L137.953 39.013L138.458 39.7967V40.2669V44.6554" stroke="#F9AB00" stroke-width="1.53708"/>
<path d="M140.097 44.6526V40.1074L140.349 39.6372L140.727 39.0103L141.106 38.5401L141.61 38.0699L142.114 37.9654L142.871 37.8087L143.501 37.9131L144.006 38.1221L144.825 38.9842L145.33 39.8723L145.393 40.1074V44.6526" stroke="#F9AB00" stroke-width="1.53708"/>
<path d="M146.78 44.6554V40.1101L147.032 39.6399L147.536 39.013L148.04 38.5428L148.545 38.0726H148.923H149.301H149.806H149.932L150.058 38.2293" stroke="#F9AB00" stroke-width="1.53708"/>
<path d="M193.306 44.6548V40.7365L193.685 39.9529L194.315 39.0125L195.45 38.5423L196.585 38.699L197.72 39.3259L198.35 40.7365V45.4385" stroke="#F9AB00" stroke-width="1.53708"/>
<path d="M199.989 45.4371V40.5784L200.368 39.638L200.998 39.011L202.133 38.6976H203.646L204.528 39.3245L205.159 40.2649V41.2053C205.159 41.78 205.159 42.992 205.159 43.2428C205.159 43.4936 205.159 44.8101 205.159 45.4371" stroke="#F9AB00" stroke-width="1.53708"/>
<path d="M206.546 45.4385V40.7365L206.924 39.7961L207.68 39.0125L209.067 38.5423H210.328L211.463 39.0125L212.094 39.7961L212.472 40.7365V43.7144V45.4385" stroke="#F9AB00" stroke-width="1.53708"/>
<path d="M216.759 45.4367V37.2866H220.163V45.4367" stroke="#F9AB00" stroke-width="1.53708"/>
<path d="M221.928 45.438V40.4225L222.685 39.1687L223.189 38.2283L224.324 37.6014L225.585 37.1312L226.846 37.6014L228.107 38.6985L228.989 39.9524L229.242 40.4225V44.9678" stroke="#F9AB00" stroke-width="1.53708"/>
<path d="M230.881 45.2813V40.2658L231.763 38.8552L232.52 37.7581L233.781 37.1312H235.168L237.185 38.2283L238.068 39.6389L238.32 40.2658V45.2813" stroke="#F9AB00" stroke-width="1.53708"/>
<path d="M239.833 45.1245V40.5793L240.59 39.012L241.851 37.6014L243.49 37.1312H244.877L245.886 37.6014L246.894 39.012L247.651 40.5793V45.1245" stroke="#F9AB00" stroke-width="1.53708"/>
<path d="M249.038 45.2801V40.4214L249.542 39.3242L250.677 38.2271L251.56 37.6002H252.947L254.46 38.2271L255.342 38.8541L256.099 40.4214V42.3022V45.2801M258.116 45.907V37.6002H262.151V45.907" stroke="#F9AB00" stroke-width="1.53708"/>
<path d="M214.111 21.6145H262.655" stroke="#F9AB00" stroke-width="1.53708"/>
<path d="M261.52 27.256V23.0242H257.99V27.256H261.52Z" stroke="#F9AB00" stroke-width="1.53708"/>
<path d="M256.603 27.2566V22.868H249.038V27.2566H256.603Z" stroke="#F9AB00" stroke-width="1.53708"/>
<path d="M247.524 27.0992V23.0242H240.085V27.0992H247.524Z" stroke="#F9AB00" stroke-width="1.53708"/>
<path d="M238.698 27.2566V22.868H230.755V27.2566H238.698Z" stroke="#F9AB00" stroke-width="1.53708"/>
<path d="M229.368 26.7864V22.868H221.677V26.7864H229.368Z" stroke="#F9AB00" stroke-width="1.53708"/>
<path d="M220.416 26.943V22.5545H215.372V26.943H220.416Z" stroke="#F9AB00" stroke-width="1.53708"/>
<path d="M214.111 22.868V30.2345" stroke="#F9AB00" stroke-width="1.53708"/>
<path d="M173.573 12.666C174.638 12.666 175.768 13.8068 175.768 15.581C175.767 17.3551 174.638 18.4951 173.573 18.4951C172.509 18.4949 171.379 17.355 171.379 15.581C171.379 13.8069 172.509 12.6661 173.573 12.666Z" stroke="#F9AB00" stroke-width="1.53708"/>
</svg>
