<svg xmlns="http://www.w3.org/2000/svg" width="18" height="18" viewBox="0 0 18 18" fill="none">
  <path d="M12.7034 10.6156C12.7742 10.0318 12.8273 9.44791 12.8273 8.84632C12.8273 8.24485 12.7742 7.66099 12.7034 7.07713H15.6935C15.835 7.64326 15.9236 8.23598 15.9236 8.84632C15.9236 9.45678 15.835 10.0495 15.6935 10.6156M11.1376 15.5342C11.6684 14.5523 12.0753 13.4907 12.3584 12.3849H14.9682C14.111 13.8606 12.7513 14.9787 11.1376 15.5342ZM10.9164 10.6156H6.77632C6.68789 10.0318 6.63482 9.44791 6.63482 8.84632C6.63482 8.24485 6.68789 7.65212 6.77632 7.07713H10.9164C10.9961 7.65212 11.0579 8.24485 11.0579 8.84632C11.0579 9.44791 10.9961 10.0318 10.9164 10.6156ZM8.84638 15.8881C8.11215 14.8265 7.51942 13.65 7.15674 12.3849H10.536C10.1733 13.65 9.58061 14.8265 8.84638 15.8881ZM5.30785 5.30781H2.72462C3.57287 3.828 4.93169 2.70824 6.54627 2.15847C6.01549 3.14048 5.61746 4.20204 5.30785 5.30781ZM2.72462 12.3849H5.30785C5.61746 13.4907 6.01549 14.5523 6.54627 15.5342C4.93506 14.9784 3.57825 13.8603 2.72462 12.3849ZM1.99925 10.6156C1.85775 10.0495 1.7692 9.45678 1.7692 8.84632C1.7692 8.23598 1.85775 7.64326 1.99925 7.07713H4.98938C4.91857 7.66099 4.86549 8.24485 4.86549 8.84632C4.86549 9.44791 4.91857 10.0318 4.98938 10.6156M8.84638 1.79579C9.58061 2.85735 10.1733 4.04281 10.536 5.30781H7.15674C7.51942 4.04281 8.11215 2.85735 8.84638 1.79579ZM14.9682 5.30781H12.3584C12.0816 4.21216 11.6715 3.15447 11.1376 2.15847C12.7653 2.71585 14.1189 3.83936 14.9682 5.30781ZM8.84638 0C3.95429 0 0 3.98086 0 8.84632C0 11.1925 0.931934 13.4426 2.59098 15.1017C3.41251 15.9231 4.38766 16.5747 5.46097 17.0194C6.53428 17.4638 7.68465 17.6928 8.84638 17.6928C11.1926 17.6928 13.4427 16.7607 15.1018 15.1017C16.7608 13.4426 17.6928 11.1925 17.6928 8.84632C17.6928 7.68459 17.464 6.53423 17.0195 5.46093C16.5749 4.38775 15.9232 3.41249 15.1018 2.59096C14.2802 1.76956 13.3051 1.11789 12.2318 0.673405C11.1585 0.228798 10.0081 0 8.84638 0Z" fill="black"/>
</svg>