<svg xmlns="http://www.w3.org/2000/svg" width="18" height="19" viewBox="0 0 18 19" fill="none">
  <path d="M9.95997 16.7854C11.856 15.0149 15.2294 11.398 15.2294 8.07873C15.2294 6.24219 14.5417 4.48087 13.3177 3.18224C12.0936 1.88361 10.4335 1.15405 8.70245 1.15405C6.9714 1.15405 5.31126 1.88361 4.08723 3.18224C2.86319 4.48087 2.17554 6.24219 2.17554 8.07873C2.17554 11.398 5.54778 15.0149 7.44493 16.7854C7.79098 17.113 8.2386 17.2942 8.70245 17.2942C9.1663 17.2942 9.61392 17.113 9.95997 16.7854ZM6.52681 8.07873C6.52681 7.46655 6.75603 6.87944 7.16404 6.44657C7.57205 6.01369 8.12543 5.7705 8.70245 5.7705C9.27946 5.7705 9.83285 6.01369 10.2409 6.44657C10.6489 6.87944 10.8781 7.46655 10.8781 8.07873C10.8781 8.69091 10.6489 9.27801 10.2409 9.71089C9.83285 10.1438 9.27946 10.387 8.70245 10.387C8.12543 10.387 7.57205 10.1438 7.16404 9.71089C6.75603 9.27801 6.52681 8.69091 6.52681 8.07873Z" fill="white"/>
</svg>